<svg xmlns="http://www.w3.org/2000/svg" xmlns:xlink="http://www.w3.org/1999/xlink" width="17" height="18" xmlns:v="https://vecta.io/nano"><g fill="red"><path d="M16.397 3c0 1.346-1.123 2.438-2.508 2.438S11.382 4.346 11.382 3 12.504.563 13.89.563 16.397 1.654 16.397 3z"/><use xlink:href="#B"/><path d="M16.397 15c0 1.346-1.123 2.437-2.508 2.437s-2.508-1.09-2.508-2.437 1.123-2.438 2.508-2.438 2.508 1.09 2.508 2.438z"/><use xlink:href="#B" y="12"/><path d="M5.594 9c0 1.346-1.123 2.437-2.508 2.437S.58 10.346.58 9s1.123-2.437 2.508-2.437S5.594 7.654 5.594 9z"/><path d="M3.086 12C1.384 12 0 10.655 0 9s1.384-3 3.086-3 3.087 1.345 3.087 3-1.384 3-3.087 3zm0-4.875c-1.064 0-1.93.84-1.93 1.875s.865 1.875 1.93 1.875 1.93-.84 1.93-1.875-.865-1.875-1.93-1.875z"/><path d="M4.908 8.64c-.27 0-.53-.136-.67-.38a.74.74 0 0 1 .289-1.023l7.16-3.967c.37-.206.84-.08 1.053.28a.74.74 0 0 1-.289 1.023L5.3 8.542c-.12.067-.25.098-.38.098zm7.16 6.188c-.13 0-.26-.032-.38-.098l-7.16-3.967a.74.74 0 0 1-.289-1.023c.2-.36.682-.487 1.052-.28l7.16 3.967a.74.74 0 0 1 .289 1.023.78.78 0 0 1-.67.38z"/></g><defs ><path id="B" d="M13.89 6c-1.702 0-3.086-1.346-3.086-3s1.384-3 3.086-3 3.086 1.346 3.086 3-1.384 3-3.086 3zm0-4.875c-1.064 0-1.93.842-1.93 1.875s.865 1.875 1.93 1.875 1.93-.842 1.93-1.875-.865-1.875-1.93-1.875z"/></defs></svg>